# xmcd
#
# Track frame offsets: 
#        150
#        15152
#        30078
#        41429
#        54453
#        66833
#        85069
#        101836
#        115295
#        131106
#
# Disc length: 1913 seconds
#
# Revision: 0
# Processed by: cddbd v1.5.2PL0 Copyright (c) Steve Scherf et al.
# Submitted via: ExactAudioCopy v0.95b4
#
DISCID=7507770a
DTITLE=Various Artist - Pickin' On Dolly Parton
DYEAR=2003
DGENRE=Bluegrass
TTITLE0=My Tennessee Mountain Home
TTITLE1=The Bargain Store
TTITLE2=Love Is Like A Butterfly
TTITLE3=Jolene
TTITLE4=9 To 5
TTITLE5=Here You Come Again
TTITLE6=Those Memories Of You
TTITLE7=Coat Of Many Colors 
TTITLE8=I Will Always Love You
TTITLE9=Dolly's Breakdown
EXTD=
EXTT0=
EXTT1=
EXTT2=
EXTT3=
EXTT4=
EXTT5=
EXTT6=
EXTT7=
EXTT8=
EXTT9=
PLAYORDER=
